<svg xmlns="http://www.w3.org/2000/svg" fill="none" viewBox="0 0 128 128"><g id="pollen-tree-low__pollen-tree-low" clip-path="url(#pollen-tree-low__clip0_3104_26391)"><g id="pollen-tree-low__Tree"><path id="pollen-tree-low__Trunk" fill="#654427" fill-rule="evenodd" d="M66.211 100.135q.04-.104.056-.211L65.277 92h1.975l1 7.675h.025a3 3 0 0 1-.2 1.179 3 3 0 0 1-1.629 1.683c-.37.157-.769.238-1.171.238h-3.275a3 3 0 0 1-2.801-1.921 3 3 0 0 1-.2-1.179l1-7.675H62l-1 7.812a1 1 0 0 0 .281.658 1 1 0 0 0 .72.305h3.277a1 1 0 0 0 .719-.305 1 1 0 0 0 .214-.335" clip-rule="evenodd"/><path id="pollen-tree-low__Canopy" stroke="#16a34a" stroke-linecap="round" stroke-miterlimit="10" stroke-width="3" d="M62.041 36.62a2.213 2.213 0 0 1 3.846-.003l13.533 30.64c.069.156.161.29.267.408 3.645 6.847 1.633 15.43-4.604 19.774l-.304.207-2.215 1.461c-1.882 1.24-3.897 2.037-5.988 2.378q-.083.015-.2.015h-4.73q-.127 0-.223-.019a15.8 15.8 0 0 1-5.986-2.374h-.002l-2.21-1.459c-6.574-4.372-8.674-13.276-4.753-20.276l.035-.062.028-.066zm17.843 28.864q.019-.014.039-.028z"/></g><g id="pollen-tree-low__Severity"><rect width="30" height="30" x="71" y="71" fill="#91c700" rx="9"/><path id="pollen-tree-low__Text" fill="#fff" d="M88.556 92h-3.18v-7.565h-2.991V82.31h.51q1.31 0 2.074-.561.714-.527.935-1.717l.034-.136h2.618z"/></g><g id="pollen-tree-low__Pollen"><path id="pollen-tree-low__Pollen 7" fill="#facc15" d="M90 53a3 3 0 1 0 0-6 3 3 0 0 0 0 6"><animateTransform attributeName="transform" begin="0s" calcMode="spline" dur="3s" keySplines=".42 0 .58 1" repeatCount="indefinite" type="translate" values="0 0;8 -4"/><animate attributeName="opacity" begin="0s" dur="3s" keyTimes="0;0.2;0.8;1" repeatCount="indefinite" values="0;1;1;0"/></path><path id="pollen-tree-low__Pollen 6" fill="#facc15" d="M80 42a2 2 0 1 0 0-4 2 2 0 0 0 0 4"><animateTransform attributeName="transform" begin="-2.65s" calcMode="spline" dur="3s" keySplines=".42 0 .58 1" repeatCount="indefinite" type="translate" values="0 0;8 -4"/><animate attributeName="opacity" begin="-2.65s" dur="3s" keyTimes="0;0.2;0.8;1" repeatCount="indefinite" values="0;1;1;0"/></path><path id="pollen-tree-low__Pollen 5" fill="#facc15" d="M74 52a4 4 0 1 0 0-8 4 4 0 0 0 0 8"><animateTransform attributeName="transform" begin="-2.3s" calcMode="spline" dur="3s" keySplines=".42 0 .58 1" repeatCount="indefinite" type="translate" values="0 0;8 -4"/><animate attributeName="opacity" begin="-2.3s" dur="3s" keyTimes="0;0.2;0.8;1" repeatCount="indefinite" values="0;1;1;0"/></path><path id="pollen-tree-low__Pollen 4" fill="#facc15" d="M64 41a3 3 0 1 0 0-6 3 3 0 0 0 0 6"><animateTransform attributeName="transform" begin="-1.9500000000000002s" calcMode="spline" dur="3s" keySplines=".42 0 .58 1" repeatCount="indefinite" type="translate" values="0 0;8 -4"/><animate attributeName="opacity" begin="-1.9500000000000002s" dur="3s" keyTimes="0;0.2;0.8;1" repeatCount="indefinite" values="0;1;1;0"/></path><path id="pollen-tree-low__Pollen 3" fill="#facc15" d="M54 52a4 4 0 1 0 0-8 4 4 0 0 0 0 8"><animateTransform attributeName="transform" begin="-1.6s" calcMode="spline" dur="3s" keySplines=".42 0 .58 1" repeatCount="indefinite" type="translate" values="0 0;8 -4"/><animate attributeName="opacity" begin="-1.6s" dur="3s" keyTimes="0;0.2;0.8;1" repeatCount="indefinite" values="0;1;1;0"/></path><path id="pollen-tree-low__Pollen 2" fill="#facc15" d="M48 42a2 2 0 1 0 0-4 2 2 0 0 0 0 4"><animateTransform attributeName="transform" begin="-1.25s" calcMode="spline" dur="3s" keySplines=".42 0 .58 1" repeatCount="indefinite" type="translate" values="0 0;8 -4"/><animate attributeName="opacity" begin="-1.25s" dur="3s" keyTimes="0;0.2;0.8;1" repeatCount="indefinite" values="0;1;1;0"/></path><path id="pollen-tree-low__Pollen 1" fill="#facc15" d="M38 53a3 3 0 1 0 0-6 3 3 0 0 0 0 6"><animateTransform attributeName="transform" begin="-0.9000000000000004s" calcMode="spline" dur="3s" keySplines=".42 0 .58 1" repeatCount="indefinite" type="translate" values="0 0;8 -4"/><animate attributeName="opacity" begin="-0.9000000000000004s" dur="3s" keyTimes="0;0.2;0.8;1" repeatCount="indefinite" values="0;1;1;0"/></path></g></g><defs><clipPath id="pollen-tree-low__clip0_3104_26391"><rect width="128" height="128" fill="#fff"/></clipPath></defs></svg>