<svg xmlns="http://www.w3.org/2000/svg" fill="none" viewBox="0 0 128 128"><g id="pollen-flower__pollen-flower" clip-path="url(#pollen-flower__clip0_3104_26366)"><g id="pollen-flower__Flower"><path id="pollen-flower__Leaves" fill="#a78bfa" fill-rule="evenodd" d="M41.318 50.5c2.075-3.706 6.08-5.548 9.953-4.955a9.6 9.6 0 0 1 2.926.951c.063-1.057.283-2.071.637-3.016C56.254 39.689 59.822 37 64 37s7.746 2.689 9.166 6.48c.354.945.574 1.959.637 3.016a9.6 9.6 0 0 1 2.927-.95c3.871-.594 7.877 1.248 9.953 4.954a10.38 10.38 0 0 1-.85 11.408A9.9 9.9 0 0 1 83.606 64a9.9 9.9 0 0 1 2.227 2.092 10.38 10.38 0 0 1 .85 11.408c-2.076 3.706-6.082 5.548-9.954 4.955a9.6 9.6 0 0 1-2.926-.951 10.3 10.3 0 0 1-.637 3.016C71.746 88.311 68.178 91 64 91s-7.746-2.689-9.166-6.48a10.3 10.3 0 0 1-.637-3.016 9.6 9.6 0 0 1-2.927.95c-3.871.594-7.877-1.248-9.952-4.954a10.38 10.38 0 0 1 .849-11.408A9.9 9.9 0 0 1 44.394 64a9.9 9.9 0 0 1-2.227-2.092 10.38 10.38 0 0 1-.85-11.408m11.508-1.335 1.61.827 5.063 9.04a6 6 0 0 1 2.493-1.688l-4.913-8.772.112-1.898C57.418 42.871 60.457 40 64 40s6.582 2.871 6.808 6.674l.113 1.898-4.913 8.772c.97.345 1.826.932 2.493 1.689l5.064-9.041 1.61-.827c3.141-1.615 7.052-.48 8.89 2.8 1.862 3.326.84 7.516-2.15 9.557l-1.433.978H69.98q.02.248.02.5c0 .892-.195 1.739-.544 2.5h11.026l1.433.978c2.99 2.04 4.012 6.231 2.15 9.556-1.838 3.281-5.749 4.416-8.89 2.801l-1.61-.827-5.793-10.342a6 6 0 0 1-2.74 1.246l5.89 10.516-.114 1.898C70.583 85.129 67.545 88 64 88s-6.582-2.871-6.809-6.674l-.112-1.898 5.89-10.516a6 6 0 0 1-2.741-1.246l-5.793 10.342-1.61.827c-3.141 1.615-7.052.48-8.89-2.8-1.862-3.326-.84-7.516 2.15-9.557l1.433-.978h11.026a6 6 0 0 1-.523-3H47.518l-1.433-.978c-2.99-2.04-4.012-6.231-2.15-9.556 1.838-3.281 5.749-4.416 8.89-2.801" clip-rule="evenodd"/><circle id="pollen-flower__Center" cx="64" cy="63" r="4.5" stroke="#f59e0b" stroke-width="3"/></g><g id="pollen-flower__Pollen"><path id="pollen-flower__Pollen 7" fill="#facc15" d="M90 53a3 3 0 1 0 0-6 3 3 0 0 0 0 6"><animateTransform attributeName="transform" begin="0s" calcMode="spline" dur="3s" keySplines=".42 0 .58 1" repeatCount="indefinite" type="translate" values="0 0;8 -4"/><animate attributeName="opacity" begin="0s" dur="3s" keyTimes="0;0.2;0.8;1" repeatCount="indefinite" values="0;1;1;0"/></path><path id="pollen-flower__Pollen 6" fill="#facc15" d="M80 42a2 2 0 1 0 0-4 2 2 0 0 0 0 4"><animateTransform attributeName="transform" begin="-2.65s" calcMode="spline" dur="3s" keySplines=".42 0 .58 1" repeatCount="indefinite" type="translate" values="0 0;8 -4"/><animate attributeName="opacity" begin="-2.65s" dur="3s" keyTimes="0;0.2;0.8;1" repeatCount="indefinite" values="0;1;1;0"/></path><path id="pollen-flower__Pollen 5" fill="#facc15" d="M74 52a4 4 0 1 0 0-8 4 4 0 0 0 0 8"><animateTransform attributeName="transform" begin="-2.3s" calcMode="spline" dur="3s" keySplines=".42 0 .58 1" repeatCount="indefinite" type="translate" values="0 0;8 -4"/><animate attributeName="opacity" begin="-2.3s" dur="3s" keyTimes="0;0.2;0.8;1" repeatCount="indefinite" values="0;1;1;0"/></path><path id="pollen-flower__Pollen 4" fill="#facc15" d="M64 41a3 3 0 1 0 0-6 3 3 0 0 0 0 6"><animateTransform attributeName="transform" begin="-1.9500000000000002s" calcMode="spline" dur="3s" keySplines=".42 0 .58 1" repeatCount="indefinite" type="translate" values="0 0;8 -4"/><animate attributeName="opacity" begin="-1.9500000000000002s" dur="3s" keyTimes="0;0.2;0.8;1" repeatCount="indefinite" values="0;1;1;0"/></path><path id="pollen-flower__Pollen 3" fill="#facc15" d="M54 52a4 4 0 1 0 0-8 4 4 0 0 0 0 8"><animateTransform attributeName="transform" begin="-1.6s" calcMode="spline" dur="3s" keySplines=".42 0 .58 1" repeatCount="indefinite" type="translate" values="0 0;8 -4"/><animate attributeName="opacity" begin="-1.6s" dur="3s" keyTimes="0;0.2;0.8;1" repeatCount="indefinite" values="0;1;1;0"/></path><path id="pollen-flower__Pollen 2" fill="#facc15" d="M48 42a2 2 0 1 0 0-4 2 2 0 0 0 0 4"><animateTransform attributeName="transform" begin="-1.25s" calcMode="spline" dur="3s" keySplines=".42 0 .58 1" repeatCount="indefinite" type="translate" values="0 0;8 -4"/><animate attributeName="opacity" begin="-1.25s" dur="3s" keyTimes="0;0.2;0.8;1" repeatCount="indefinite" values="0;1;1;0"/></path><path id="pollen-flower__Pollen 1" fill="#facc15" d="M38 53a3 3 0 1 0 0-6 3 3 0 0 0 0 6"><animateTransform attributeName="transform" begin="-0.9000000000000004s" calcMode="spline" dur="3s" keySplines=".42 0 .58 1" repeatCount="indefinite" type="translate" values="0 0;8 -4"/><animate attributeName="opacity" begin="-0.9000000000000004s" dur="3s" keyTimes="0;0.2;0.8;1" repeatCount="indefinite" values="0;1;1;0"/></path></g></g><defs><clipPath id="pollen-flower__clip0_3104_26366"><rect width="128" height="128" fill="#fff"/></clipPath></defs></svg>