<svg xmlns="http://www.w3.org/2000/svg" fill="none" viewBox="0 0 128 128"><g id="pollen-tree-fir__pollen-tree-fir" clip-path="url(#pollen-tree-fir__clip0_3104_26375)"><g id="pollen-tree-fir__Tree Fir"><path id="pollen-tree-fir__Trunk" fill="#654427" fill-rule="evenodd" d="M66.211 100.135q.04-.104.056-.211L65.277 92h1.975l1 7.675h.025a3 3 0 0 1-.2 1.179 3 3 0 0 1-1.629 1.683c-.37.157-.769.238-1.171.238h-3.275a3 3 0 0 1-2.801-1.921 3 3 0 0 1-.2-1.179l1-7.675H62l-1 7.812a1 1 0 0 0 .281.658 1 1 0 0 0 .72.305h3.277a1 1 0 0 0 .719-.305 1 1 0 0 0 .214-.335" clip-rule="evenodd"/><path id="pollen-tree-fir__Vector" stroke="#16a34a" stroke-linecap="round" stroke-miterlimit="10" stroke-width="3" d="M71.085 46.5h-.11c-2.104 0-3.266 2.443-1.939 4.076L73.85 56.5h-1.4c-2.157 0-3.302 2.549-1.869 4.161l6.08 6.839H75.3c-2.167 0-3.307 2.57-1.853 4.178L79.62 78.5h-2.347c-2.175 0-3.312 2.586-1.842 4.19l7.16 7.81H45.409l7.16-7.81c1.47-1.604.333-4.19-1.842-4.19H48.38l6.173-6.822c1.454-1.608.314-4.178-1.854-4.178h-1.36l6.08-6.839c1.434-1.612.289-4.161-1.868-4.161h-1.4l4.813-5.924c1.327-1.633.165-4.076-1.94-4.076h-.109L64 36.58z"/></g><g id="pollen-tree-fir__Pollen"><path id="pollen-tree-fir__Pollen 7" fill="#facc15" d="M90 53a3 3 0 1 0 0-6 3 3 0 0 0 0 6"><animateTransform attributeName="transform" begin="0s" calcMode="spline" dur="3s" keySplines=".42 0 .58 1" repeatCount="indefinite" type="translate" values="0 0;8 -4"/><animate attributeName="opacity" begin="0s" dur="3s" keyTimes="0;0.2;0.8;1" repeatCount="indefinite" values="0;1;1;0"/></path><path id="pollen-tree-fir__Pollen 6" fill="#facc15" d="M80 42a2 2 0 1 0 0-4 2 2 0 0 0 0 4"><animateTransform attributeName="transform" begin="-2.65s" calcMode="spline" dur="3s" keySplines=".42 0 .58 1" repeatCount="indefinite" type="translate" values="0 0;8 -4"/><animate attributeName="opacity" begin="-2.65s" dur="3s" keyTimes="0;0.2;0.8;1" repeatCount="indefinite" values="0;1;1;0"/></path><path id="pollen-tree-fir__Pollen 5" fill="#facc15" d="M74 52a4 4 0 1 0 0-8 4 4 0 0 0 0 8"><animateTransform attributeName="transform" begin="-2.3s" calcMode="spline" dur="3s" keySplines=".42 0 .58 1" repeatCount="indefinite" type="translate" values="0 0;8 -4"/><animate attributeName="opacity" begin="-2.3s" dur="3s" keyTimes="0;0.2;0.8;1" repeatCount="indefinite" values="0;1;1;0"/></path><path id="pollen-tree-fir__Pollen 4" fill="#facc15" d="M64 41a3 3 0 1 0 0-6 3 3 0 0 0 0 6"><animateTransform attributeName="transform" begin="-1.9500000000000002s" calcMode="spline" dur="3s" keySplines=".42 0 .58 1" repeatCount="indefinite" type="translate" values="0 0;8 -4"/><animate attributeName="opacity" begin="-1.9500000000000002s" dur="3s" keyTimes="0;0.2;0.8;1" repeatCount="indefinite" values="0;1;1;0"/></path><path id="pollen-tree-fir__Pollen 3" fill="#facc15" d="M54 52a4 4 0 1 0 0-8 4 4 0 0 0 0 8"><animateTransform attributeName="transform" begin="-1.6s" calcMode="spline" dur="3s" keySplines=".42 0 .58 1" repeatCount="indefinite" type="translate" values="0 0;8 -4"/><animate attributeName="opacity" begin="-1.6s" dur="3s" keyTimes="0;0.2;0.8;1" repeatCount="indefinite" values="0;1;1;0"/></path><path id="pollen-tree-fir__Pollen 2" fill="#facc15" d="M48 42a2 2 0 1 0 0-4 2 2 0 0 0 0 4"><animateTransform attributeName="transform" begin="-1.25s" calcMode="spline" dur="3s" keySplines=".42 0 .58 1" repeatCount="indefinite" type="translate" values="0 0;8 -4"/><animate attributeName="opacity" begin="-1.25s" dur="3s" keyTimes="0;0.2;0.8;1" repeatCount="indefinite" values="0;1;1;0"/></path><path id="pollen-tree-fir__Pollen 1" fill="#facc15" d="M38 53a3 3 0 1 0 0-6 3 3 0 0 0 0 6"><animateTransform attributeName="transform" begin="-0.9000000000000004s" calcMode="spline" dur="3s" keySplines=".42 0 .58 1" repeatCount="indefinite" type="translate" values="0 0;8 -4"/><animate attributeName="opacity" begin="-0.9000000000000004s" dur="3s" keyTimes="0;0.2;0.8;1" repeatCount="indefinite" values="0;1;1;0"/></path></g></g><defs><clipPath id="pollen-tree-fir__clip0_3104_26375"><rect width="128" height="128" fill="#fff"/></clipPath></defs></svg>