<svg xmlns="http://www.w3.org/2000/svg" fill="none" viewBox="0 0 128 128"><g id="pollen-tree__pollen-tree" clip-path="url(#pollen-tree__clip0_3104_27081)"><g id="pollen-tree__Tree"><path id="pollen-tree__Trunk" fill="url(#pollen-tree__paint0_linear_3104_27081)" stroke="#654427" stroke-linecap="round" stroke-linejoin="round" d="M63.002 87.5h1.25a2.5 2.5 0 0 1 2.5 2.438q0 .018.002.038l.999 9.738q.006.053.021.102a2.5 2.5 0 0 1-.163.858 2.5 2.5 0 0 1-2.334 1.601h-3.276a2.505 2.505 0 0 1-2.334-1.601c-.12-.31-.176-.64-.166-.972l.998-9.726.003-.038a2.5 2.5 0 0 1 2.5-2.438"/><path id="pollen-tree__Canopy" fill="#16a34a" d="m67.222 35.926 13.57 30.725c.005.011.02.014.029.005a.018.018 0 0 1 .028.004c4.28 7.666 1.99 17.462-5.243 22.238l-2.218 1.462c-2.048 1.349-4.259 2.228-6.57 2.606a3 3 0 0 1-.442.034h-4.73q-.244 0-.485-.041a17.3 17.3 0 0 1-6.55-2.599l-2.217-1.462c-7.24-4.816-9.527-14.59-5.23-22.259l13.545-30.713a3.716 3.716 0 0 1 6.513 0"/></g><g id="pollen-tree__Pollen"><path id="pollen-tree__Pollen 7" fill="#facc15" d="M90 53a3 3 0 1 0 0-6 3 3 0 0 0 0 6"><animateTransform attributeName="transform" begin="0s" calcMode="spline" dur="3s" keySplines=".42 0 .58 1" repeatCount="indefinite" type="translate" values="0 0;8 -4"/><animate attributeName="opacity" begin="0s" dur="3s" keyTimes="0;0.2;0.8;1" repeatCount="indefinite" values="0;1;1;0"/></path><path id="pollen-tree__Pollen 6" fill="#facc15" d="M80 42a2 2 0 1 0 0-4 2 2 0 0 0 0 4"><animateTransform attributeName="transform" begin="-2.65s" calcMode="spline" dur="3s" keySplines=".42 0 .58 1" repeatCount="indefinite" type="translate" values="0 0;8 -4"/><animate attributeName="opacity" begin="-2.65s" dur="3s" keyTimes="0;0.2;0.8;1" repeatCount="indefinite" values="0;1;1;0"/></path><path id="pollen-tree__Pollen 5" fill="#facc15" d="M74 52a4 4 0 1 0 0-8 4 4 0 0 0 0 8"><animateTransform attributeName="transform" begin="-2.3s" calcMode="spline" dur="3s" keySplines=".42 0 .58 1" repeatCount="indefinite" type="translate" values="0 0;8 -4"/><animate attributeName="opacity" begin="-2.3s" dur="3s" keyTimes="0;0.2;0.8;1" repeatCount="indefinite" values="0;1;1;0"/></path><path id="pollen-tree__Pollen 4" fill="#facc15" d="M64 41a3 3 0 1 0 0-6 3 3 0 0 0 0 6"><animateTransform attributeName="transform" begin="-1.9500000000000002s" calcMode="spline" dur="3s" keySplines=".42 0 .58 1" repeatCount="indefinite" type="translate" values="0 0;8 -4"/><animate attributeName="opacity" begin="-1.9500000000000002s" dur="3s" keyTimes="0;0.2;0.8;1" repeatCount="indefinite" values="0;1;1;0"/></path><path id="pollen-tree__Pollen 3" fill="#facc15" d="M54 52a4 4 0 1 0 0-8 4 4 0 0 0 0 8"><animateTransform attributeName="transform" begin="-1.6s" calcMode="spline" dur="3s" keySplines=".42 0 .58 1" repeatCount="indefinite" type="translate" values="0 0;8 -4"/><animate attributeName="opacity" begin="-1.6s" dur="3s" keyTimes="0;0.2;0.8;1" repeatCount="indefinite" values="0;1;1;0"/></path><path id="pollen-tree__Pollen 2" fill="#facc15" d="M48 42a2 2 0 1 0 0-4 2 2 0 0 0 0 4"><animateTransform attributeName="transform" begin="-1.25s" calcMode="spline" dur="3s" keySplines=".42 0 .58 1" repeatCount="indefinite" type="translate" values="0 0;8 -4"/><animate attributeName="opacity" begin="-1.25s" dur="3s" keyTimes="0;0.2;0.8;1" repeatCount="indefinite" values="0;1;1;0"/></path><path id="pollen-tree__Pollen 1" fill="#facc15" d="M38 53a3 3 0 1 0 0-6 3 3 0 0 0 0 6"><animateTransform attributeName="transform" begin="-0.9000000000000004s" calcMode="spline" dur="3s" keySplines=".42 0 .58 1" repeatCount="indefinite" type="translate" values="0 0;8 -4"/><animate attributeName="opacity" begin="-0.9000000000000004s" dur="3s" keyTimes="0;0.2;0.8;1" repeatCount="indefinite" values="0;1;1;0"/></path></g></g><defs><linearGradient id="pollen-tree__paint0_linear_3104_27081" x1="67.678" x2="67.678" y1="64.775" y2="102.775" gradientUnits="userSpaceOnUse"><stop stop-color="#875b34"/><stop offset="1" stop-color="#654427"/></linearGradient><clipPath id="pollen-tree__clip0_3104_27081"><rect width="128" height="128" fill="#fff"/></clipPath></defs></svg>