<svg xmlns="http://www.w3.org/2000/svg" fill="none" viewBox="0 0 128 128"><g id="pollen-tree-fir__pollen-tree-fir" clip-path="url(#pollen-tree-fir__clip0_3104_27084)"><g id="pollen-tree-fir__Tree Fir"><path id="pollen-tree-fir__Trunk" fill="#875b34" d="M68.25 99.663q.003.011.014.012.012.001.013.013a3 3 0 0 1-1.829 2.849c-.37.157-.769.238-1.171.238h-3.275a3 3 0 0 1-2.801-1.921 3 3 0 0 1-.2-1.179l1-9.75a3 3 0 0 1 3-2.925h1.25a3 3 0 0 1 3 2.925z"/><g id="pollen-tree-fir__Canopy"><path id="pollen-tree-fir__Canopy 1" fill="#16a34a" d="M61.789 70.413a3 3 0 0 1 4.422 0l15.18 16.56c1.765 1.924.4 5.027-2.21 5.027H48.82c-2.61 0-3.976-3.103-2.212-5.027z"/><path id="pollen-tree-fir__Canopy 2" fill="#16a34a" d="M61.775 61.459a3 3 0 0 1 4.45 0l12.24 13.528C80.21 76.916 78.84 80 76.24 80H51.76c-2.601 0-3.97-3.084-2.225-5.013z"/><path id="pollen-tree-fir__Canopy 3" fill="#16a34a" d="M61.758 53.523a3 3 0 0 1 4.484 0l9.32 10.484c1.72 1.935.346 4.993-2.242 4.993H54.68c-2.588 0-3.961-3.058-2.242-4.993z"/><path id="pollen-tree-fir__Canopy 4" fill="#16a34a" d="M61.672 44.866a3 3 0 0 1 4.656 0l6.697 8.242c1.593 1.96.198 4.892-2.328 4.892H57.303c-2.526 0-3.921-2.931-2.328-4.892z"/><path id="pollen-tree-fir__Canopy 5" fill="#16a34a" d="M61.559 37.418a3 3 0 0 1 4.882 0l4.17 5.838c1.419 1.986 0 4.744-2.44 4.744H59.83c-2.44 0-3.86-2.758-2.442-4.744z"/></g></g><g id="pollen-tree-fir__Pollen"><path id="pollen-tree-fir__Pollen 7" fill="#facc15" d="M90 53a3 3 0 1 0 0-6 3 3 0 0 0 0 6"><animateTransform attributeName="transform" begin="0s" calcMode="spline" dur="3s" keySplines=".42 0 .58 1" repeatCount="indefinite" type="translate" values="0 0;8 -4"/><animate attributeName="opacity" begin="0s" dur="3s" keyTimes="0;0.2;0.8;1" repeatCount="indefinite" values="0;1;1;0"/></path><path id="pollen-tree-fir__Pollen 6" fill="#facc15" d="M80 42a2 2 0 1 0 0-4 2 2 0 0 0 0 4"><animateTransform attributeName="transform" begin="-2.65s" calcMode="spline" dur="3s" keySplines=".42 0 .58 1" repeatCount="indefinite" type="translate" values="0 0;8 -4"/><animate attributeName="opacity" begin="-2.65s" dur="3s" keyTimes="0;0.2;0.8;1" repeatCount="indefinite" values="0;1;1;0"/></path><path id="pollen-tree-fir__Pollen 5" fill="#facc15" d="M74 52a4 4 0 1 0 0-8 4 4 0 0 0 0 8"><animateTransform attributeName="transform" begin="-2.3s" calcMode="spline" dur="3s" keySplines=".42 0 .58 1" repeatCount="indefinite" type="translate" values="0 0;8 -4"/><animate attributeName="opacity" begin="-2.3s" dur="3s" keyTimes="0;0.2;0.8;1" repeatCount="indefinite" values="0;1;1;0"/></path><path id="pollen-tree-fir__Pollen 4" fill="#facc15" d="M64 41a3 3 0 1 0 0-6 3 3 0 0 0 0 6"><animateTransform attributeName="transform" begin="-1.9500000000000002s" calcMode="spline" dur="3s" keySplines=".42 0 .58 1" repeatCount="indefinite" type="translate" values="0 0;8 -4"/><animate attributeName="opacity" begin="-1.9500000000000002s" dur="3s" keyTimes="0;0.2;0.8;1" repeatCount="indefinite" values="0;1;1;0"/></path><path id="pollen-tree-fir__Pollen 3" fill="#facc15" d="M54 52a4 4 0 1 0 0-8 4 4 0 0 0 0 8"><animateTransform attributeName="transform" begin="-1.6s" calcMode="spline" dur="3s" keySplines=".42 0 .58 1" repeatCount="indefinite" type="translate" values="0 0;8 -4"/><animate attributeName="opacity" begin="-1.6s" dur="3s" keyTimes="0;0.2;0.8;1" repeatCount="indefinite" values="0;1;1;0"/></path><path id="pollen-tree-fir__Pollen 2" fill="#facc15" d="M48 42a2 2 0 1 0 0-4 2 2 0 0 0 0 4"><animateTransform attributeName="transform" begin="-1.25s" calcMode="spline" dur="3s" keySplines=".42 0 .58 1" repeatCount="indefinite" type="translate" values="0 0;8 -4"/><animate attributeName="opacity" begin="-1.25s" dur="3s" keyTimes="0;0.2;0.8;1" repeatCount="indefinite" values="0;1;1;0"/></path><path id="pollen-tree-fir__Pollen 1" fill="#facc15" d="M38 53a3 3 0 1 0 0-6 3 3 0 0 0 0 6"><animateTransform attributeName="transform" begin="-0.9000000000000004s" calcMode="spline" dur="3s" keySplines=".42 0 .58 1" repeatCount="indefinite" type="translate" values="0 0;8 -4"/><animate attributeName="opacity" begin="-0.9000000000000004s" dur="3s" keyTimes="0;0.2;0.8;1" repeatCount="indefinite" values="0;1;1;0"/></path></g></g><defs><clipPath id="pollen-tree-fir__clip0_3104_27084"><rect width="128" height="128" fill="#fff"/></clipPath></defs></svg>