<svg xmlns="http://www.w3.org/2000/svg" fill="none" viewBox="0 0 128 128"><g id="pollen-grass-moderate__pollen-grass-moderate" clip-path="url(#pollen-grass-moderate__clip0_3104_27105)"><g id="pollen-grass-moderate__Grass"><path id="pollen-grass-moderate__Vector" fill="#22c55e" d="M65.792 91c.026-3.143.214-23.098.643-27.802.509-5.104 2.948-12.36 4.422-17.866C72.331 39.827 68.606 37 68.606 37s2.591 2.827-2.635 15.187C60.959 64 61.218 88.89 61.353 91z"/><path id="pollen-grass-moderate__Vector_2" fill="#22c55e" d="M74.465 69.063C69.962 77.205 69.373 87.288 69.32 91h4.503c-.375-4.134.062-16.115 4.645-22.696 5.628-8.08 9.533-6.75 9.533-6.75s-7.96-2.68-13.562 7.509z"/><path id="pollen-grass-moderate__Vector_3" fill="#16a34a" d="M64.987 90.999h4.431c.402-4.451.93-18.542 4.28-25.945 4.02-8.86 1.152-18.12 1.152-18.12s.501 9.091-4.832 18.773c-4.556 8.227-4.763 21.516-5.03 25.292"/><path id="pollen-grass-moderate__Vector_4" fill="#16a34a" d="M57.842 90.998h5.422c-.536-2.447-3.262-19.343-7.175-25.524C51.855 58.851 47.72 55.75 40 53.388c0 0 9.434 3.185 13.856 17.507 2.151 6.62 2.816 13.332 3.986 20.103"/><path id="pollen-grass-moderate__Vector_5" fill="#22c55e" d="M58.922 90.999c-1.072-4.008-5.28-17.255-15.786-20.967 0 0 4.843 4.936 7.684 10.378 1.643 3.413 2.768 6.968 3.35 10.589z"/></g><g id="pollen-grass-moderate__Severity"><rect width="30" height="30" x="71" y="71" fill="#ffb800" rx="9"/><path id="pollen-grass-moderate__Text" fill="#fff" d="M90.794 92h-9.588q0-1.615.697-2.703.698-1.054 2.55-2.329l1.87-1.326q.714-.493 1.003-.935a1.72 1.72 0 0 0 .306-1.003q0-.73-.442-1.139-.442-.425-1.207-.425-1.734 0-1.734 2.023v.255h-2.873v-.374q0-2.091 1.224-3.264t3.468-1.173q2.142 0 3.4 1.037 1.275 1.054 1.275 2.873 0 1.173-.612 2.108-.595.935-1.921 1.785l-2.091 1.326q-.595.39-.646.663h5.32z"/></g><g id="pollen-grass-moderate__Pollen"><path id="pollen-grass-moderate__Pollen 7" fill="#facc15" d="M90 53a3 3 0 1 0 0-6 3 3 0 0 0 0 6"><animateTransform attributeName="transform" begin="0s" calcMode="spline" dur="3s" keySplines=".42 0 .58 1" repeatCount="indefinite" type="translate" values="0 0;8 -4"/><animate attributeName="opacity" begin="0s" dur="3s" keyTimes="0;0.2;0.8;1" repeatCount="indefinite" values="0;1;1;0"/></path><path id="pollen-grass-moderate__Pollen 6" fill="#facc15" d="M80 42a2 2 0 1 0 0-4 2 2 0 0 0 0 4"><animateTransform attributeName="transform" begin="-2.65s" calcMode="spline" dur="3s" keySplines=".42 0 .58 1" repeatCount="indefinite" type="translate" values="0 0;8 -4"/><animate attributeName="opacity" begin="-2.65s" dur="3s" keyTimes="0;0.2;0.8;1" repeatCount="indefinite" values="0;1;1;0"/></path><path id="pollen-grass-moderate__Pollen 5" fill="#facc15" d="M74 52a4 4 0 1 0 0-8 4 4 0 0 0 0 8"><animateTransform attributeName="transform" begin="-2.3s" calcMode="spline" dur="3s" keySplines=".42 0 .58 1" repeatCount="indefinite" type="translate" values="0 0;8 -4"/><animate attributeName="opacity" begin="-2.3s" dur="3s" keyTimes="0;0.2;0.8;1" repeatCount="indefinite" values="0;1;1;0"/></path><path id="pollen-grass-moderate__Pollen 4" fill="#facc15" d="M64 41a3 3 0 1 0 0-6 3 3 0 0 0 0 6"><animateTransform attributeName="transform" begin="-1.9500000000000002s" calcMode="spline" dur="3s" keySplines=".42 0 .58 1" repeatCount="indefinite" type="translate" values="0 0;8 -4"/><animate attributeName="opacity" begin="-1.9500000000000002s" dur="3s" keyTimes="0;0.2;0.8;1" repeatCount="indefinite" values="0;1;1;0"/></path><path id="pollen-grass-moderate__Pollen 3" fill="#facc15" d="M54 52a4 4 0 1 0 0-8 4 4 0 0 0 0 8"><animateTransform attributeName="transform" begin="-1.6s" calcMode="spline" dur="3s" keySplines=".42 0 .58 1" repeatCount="indefinite" type="translate" values="0 0;8 -4"/><animate attributeName="opacity" begin="-1.6s" dur="3s" keyTimes="0;0.2;0.8;1" repeatCount="indefinite" values="0;1;1;0"/></path><path id="pollen-grass-moderate__Pollen 2" fill="#facc15" d="M48 42a2 2 0 1 0 0-4 2 2 0 0 0 0 4"><animateTransform attributeName="transform" begin="-1.25s" calcMode="spline" dur="3s" keySplines=".42 0 .58 1" repeatCount="indefinite" type="translate" values="0 0;8 -4"/><animate attributeName="opacity" begin="-1.25s" dur="3s" keyTimes="0;0.2;0.8;1" repeatCount="indefinite" values="0;1;1;0"/></path><path id="pollen-grass-moderate__Pollen 1" fill="#facc15" d="M38 53a3 3 0 1 0 0-6 3 3 0 0 0 0 6"><animateTransform attributeName="transform" begin="-0.9000000000000004s" calcMode="spline" dur="3s" keySplines=".42 0 .58 1" repeatCount="indefinite" type="translate" values="0 0;8 -4"/><animate attributeName="opacity" begin="-0.9000000000000004s" dur="3s" keyTimes="0;0.2;0.8;1" repeatCount="indefinite" values="0;1;1;0"/></path></g></g><defs><clipPath id="pollen-grass-moderate__clip0_3104_27105"><rect width="128" height="128" fill="#fff"/></clipPath></defs></svg>