<svg xmlns="http://www.w3.org/2000/svg" fill="none" viewBox="0 0 128 128"><g id="pollen-flower__pollen-flower" clip-path="url(#pollen-flower__clip0_3104_27779)"><g id="pollen-flower__Flower"><g id="pollen-flower__Leaves"><path fill="currentColor" d="m45.521 65.652 1.121-.765 9.48-.484a8 8 0 0 0 3.278 5.143l-5.121 9.667-.996.512c-3.631 1.866-8.125.538-10.22-3.202-2.112-3.77-.967-8.533 2.458-10.871M61.167 70.484l-5.055 9.54.081 1.361C56.45 85.687 59.897 89 64 89s7.551-3.313 7.807-7.615l.08-1.36-5.054-9.541A8 8 0 0 1 64 71a8 8 0 0 1-2.833-.516M68.6 69.546l5.121 9.667.996.512c3.631 1.866 8.125.538 10.22-3.202 2.112-3.77.967-8.533-2.458-10.871l-1.121-.765-9.48-.484a8 8 0 0 1-3.278 5.143M71.978 62.406l9.692.494.809-.552c3.425-2.337 4.57-7.1 2.459-10.87-2.096-3.742-6.59-5.069-10.22-3.203l-1.163.597-4.642 7.814a7.99 7.99 0 0 1 3.065 5.72M67.195 55.663l4.681-7.88-.07-1.168C71.552 42.313 68.104 39 64 39s-7.551 3.313-7.807 7.615l-.07 1.167 4.682 7.881A8 8 0 0 1 64 55c1.136 0 2.216.237 3.195.663M59.087 56.686l-4.642-7.814-1.162-.597c-3.631-1.866-8.125-.538-10.22 3.202-2.112 3.77-.967 8.534 2.458 10.871l.809.552 9.692-.494a7.99 7.99 0 0 1 3.065-5.72"/></g><circle id="pollen-flower__Center" cx="64" cy="63" r="6" fill="currentColor"/></g><g id="pollen-flower__Pollen"><path id="pollen-flower__Pollen 7" fill="currentColor" d="M90 53a3 3 0 1 0 0-6 3 3 0 0 0 0 6"><animateTransform attributeName="transform" begin="0s" calcMode="spline" dur="3s" keySplines=".42 0 .58 1" repeatCount="indefinite" type="translate" values="0 0;8 -4"/><animate attributeName="opacity" begin="0s" dur="3s" keyTimes="0;0.2;0.8;1" repeatCount="indefinite" values="0;1;1;0"/></path><path id="pollen-flower__Pollen 6" fill="currentColor" d="M80 42a2 2 0 1 0 0-4 2 2 0 0 0 0 4"><animateTransform attributeName="transform" begin="-2.65s" calcMode="spline" dur="3s" keySplines=".42 0 .58 1" repeatCount="indefinite" type="translate" values="0 0;8 -4"/><animate attributeName="opacity" begin="-2.65s" dur="3s" keyTimes="0;0.2;0.8;1" repeatCount="indefinite" values="0;1;1;0"/></path><path id="pollen-flower__Pollen 5" fill="currentColor" d="M74 52a4 4 0 1 0 0-8 4 4 0 0 0 0 8"><animateTransform attributeName="transform" begin="-2.3s" calcMode="spline" dur="3s" keySplines=".42 0 .58 1" repeatCount="indefinite" type="translate" values="0 0;8 -4"/><animate attributeName="opacity" begin="-2.3s" dur="3s" keyTimes="0;0.2;0.8;1" repeatCount="indefinite" values="0;1;1;0"/></path><path id="pollen-flower__Pollen 4" fill="currentColor" d="M64 41a3 3 0 1 0 0-6 3 3 0 0 0 0 6"><animateTransform attributeName="transform" begin="-1.9500000000000002s" calcMode="spline" dur="3s" keySplines=".42 0 .58 1" repeatCount="indefinite" type="translate" values="0 0;8 -4"/><animate attributeName="opacity" begin="-1.9500000000000002s" dur="3s" keyTimes="0;0.2;0.8;1" repeatCount="indefinite" values="0;1;1;0"/></path><path id="pollen-flower__Pollen 3" fill="currentColor" d="M54 52a4 4 0 1 0 0-8 4 4 0 0 0 0 8"><animateTransform attributeName="transform" begin="-1.6s" calcMode="spline" dur="3s" keySplines=".42 0 .58 1" repeatCount="indefinite" type="translate" values="0 0;8 -4"/><animate attributeName="opacity" begin="-1.6s" dur="3s" keyTimes="0;0.2;0.8;1" repeatCount="indefinite" values="0;1;1;0"/></path><path id="pollen-flower__Pollen 2" fill="currentColor" d="M48 42a2 2 0 1 0 0-4 2 2 0 0 0 0 4"><animateTransform attributeName="transform" begin="-1.25s" calcMode="spline" dur="3s" keySplines=".42 0 .58 1" repeatCount="indefinite" type="translate" values="0 0;8 -4"/><animate attributeName="opacity" begin="-1.25s" dur="3s" keyTimes="0;0.2;0.8;1" repeatCount="indefinite" values="0;1;1;0"/></path><path id="pollen-flower__Pollen 1" fill="currentColor" d="M38 53a3 3 0 1 0 0-6 3 3 0 0 0 0 6"><animateTransform attributeName="transform" begin="-0.9000000000000004s" calcMode="spline" dur="3s" keySplines=".42 0 .58 1" repeatCount="indefinite" type="translate" values="0 0;8 -4"/><animate attributeName="opacity" begin="-0.9000000000000004s" dur="3s" keyTimes="0;0.2;0.8;1" repeatCount="indefinite" values="0;1;1;0"/></path></g></g><defs><clipPath id="pollen-flower__clip0_3104_27779"><rect width="128" height="128" fill="#fff"/></clipPath></defs></svg>