<svg xmlns="http://www.w3.org/2000/svg" fill="none" viewBox="0 0 128 128"><g id="pollen-tree__pollen-tree" clip-path="url(#pollen-tree__clip0_3104_25703)"><g id="pollen-tree__Tree"><path id="pollen-tree__Trunk" fill="url(#pollen-tree__paint0_linear_3104_25703)" stroke="#654427" stroke-linecap="round" stroke-linejoin="round" d="M63.002 87.5h1.25a2.5 2.5 0 0 1 2.5 2.438q0 .018.002.038l.999 9.738q.006.053.021.102a2.5 2.5 0 0 1-.163.858 2.5 2.5 0 0 1-2.334 1.601h-3.276a2.505 2.505 0 0 1-2.334-1.601c-.12-.31-.176-.64-.166-.972l.998-9.726.003-.038a2.5 2.5 0 0 1 2.5-2.438"/><path id="pollen-tree__Canopy" fill="url(#pollen-tree__paint1_linear_3104_25703)" stroke="#16a34a" stroke-linecap="round" stroke-miterlimit="10" d="M61.152 36.157a3.215 3.215 0 0 1 5.625 0l13.558 30.696a.5.5 0 0 0 .16.204c4.041 7.42 1.797 16.828-5.165 21.424l-2.217 1.461c-1.993 1.312-4.138 2.164-6.376 2.53a2 2 0 0 1-.361.028h-4.73q-.205 0-.398-.033a16.8 16.8 0 0 1-6.361-2.525l-2.217-1.461c-7.017-4.669-9.241-14.151-5.07-21.597l.011-.022.01-.021zm19.367 30.1z"/></g><g id="pollen-tree__Pollen"><path id="pollen-tree__Pollen 7" fill="url(#pollen-tree__paint2_linear_3104_25703)" stroke="#facc15" d="M90 47.5a2.5 2.5 0 1 1 0 5 2.5 2.5 0 0 1 0-5Z"><animateTransform attributeName="transform" begin="0s" calcMode="spline" dur="3s" keySplines=".42 0 .58 1" repeatCount="indefinite" type="translate" values="0 0;8 -4"/><animate attributeName="opacity" begin="0s" dur="3s" keyTimes="0;0.2;0.8;1" repeatCount="indefinite" values="0;1;1;0"/></path><path id="pollen-tree__Pollen 6" fill="url(#pollen-tree__paint3_linear_3104_25703)" stroke="#facc15" d="M80 38.5a1.5 1.5 0 1 1 0 3 1.5 1.5 0 0 1 0-3Z"><animateTransform attributeName="transform" begin="-2.65s" calcMode="spline" dur="3s" keySplines=".42 0 .58 1" repeatCount="indefinite" type="translate" values="0 0;8 -4"/><animate attributeName="opacity" begin="-2.65s" dur="3s" keyTimes="0;0.2;0.8;1" repeatCount="indefinite" values="0;1;1;0"/></path><path id="pollen-tree__Pollen 5" fill="url(#pollen-tree__paint4_linear_3104_25703)" stroke="#facc15" d="M74 44.5a3.5 3.5 0 1 1 0 7 3.5 3.5 0 0 1 0-7Z"><animateTransform attributeName="transform" begin="-2.3s" calcMode="spline" dur="3s" keySplines=".42 0 .58 1" repeatCount="indefinite" type="translate" values="0 0;8 -4"/><animate attributeName="opacity" begin="-2.3s" dur="3s" keyTimes="0;0.2;0.8;1" repeatCount="indefinite" values="0;1;1;0"/></path><path id="pollen-tree__Pollen 4" fill="url(#pollen-tree__paint5_linear_3104_25703)" stroke="#facc15" d="M64 35.5a2.5 2.5 0 1 1 0 5 2.5 2.5 0 0 1 0-5Z"><animateTransform attributeName="transform" begin="-1.9500000000000002s" calcMode="spline" dur="3s" keySplines=".42 0 .58 1" repeatCount="indefinite" type="translate" values="0 0;8 -4"/><animate attributeName="opacity" begin="-1.9500000000000002s" dur="3s" keyTimes="0;0.2;0.8;1" repeatCount="indefinite" values="0;1;1;0"/></path><path id="pollen-tree__Pollen 3" fill="url(#pollen-tree__paint6_linear_3104_25703)" stroke="#facc15" d="M54 44.5a3.5 3.5 0 1 1 0 7 3.5 3.5 0 0 1 0-7Z"><animateTransform attributeName="transform" begin="-1.6s" calcMode="spline" dur="3s" keySplines=".42 0 .58 1" repeatCount="indefinite" type="translate" values="0 0;8 -4"/><animate attributeName="opacity" begin="-1.6s" dur="3s" keyTimes="0;0.2;0.8;1" repeatCount="indefinite" values="0;1;1;0"/></path><path id="pollen-tree__Pollen 2" fill="url(#pollen-tree__paint7_linear_3104_25703)" stroke="#facc15" d="M48 38.5a1.5 1.5 0 1 1 0 3 1.5 1.5 0 0 1 0-3Z"><animateTransform attributeName="transform" begin="-1.25s" calcMode="spline" dur="3s" keySplines=".42 0 .58 1" repeatCount="indefinite" type="translate" values="0 0;8 -4"/><animate attributeName="opacity" begin="-1.25s" dur="3s" keyTimes="0;0.2;0.8;1" repeatCount="indefinite" values="0;1;1;0"/></path><path id="pollen-tree__Pollen 1" fill="url(#pollen-tree__paint8_linear_3104_25703)" stroke="#facc15" d="M38 47.5a2.5 2.5 0 1 1 0 5 2.5 2.5 0 0 1 0-5Z"><animateTransform attributeName="transform" begin="-0.9000000000000004s" calcMode="spline" dur="3s" keySplines=".42 0 .58 1" repeatCount="indefinite" type="translate" values="0 0;8 -4"/><animate attributeName="opacity" begin="-0.9000000000000004s" dur="3s" keyTimes="0;0.2;0.8;1" repeatCount="indefinite" values="0;1;1;0"/></path></g></g><defs><linearGradient id="pollen-tree__paint0_linear_3104_25703" x1="67.678" x2="67.678" y1="64.775" y2="102.775" gradientUnits="userSpaceOnUse"><stop stop-color="#875b34"/><stop offset="1" stop-color="#654427"/></linearGradient><linearGradient id="pollen-tree__paint1_linear_3104_25703" x1="64" x2="64" y1="34" y2="93" gradientUnits="userSpaceOnUse"><stop stop-color="#22c55e"/><stop offset="1" stop-color="#16a34a"/></linearGradient><linearGradient id="pollen-tree__paint2_linear_3104_25703" x1="90" x2="90" y1="47.513" y2="51.461" gradientUnits="userSpaceOnUse"><stop stop-color="#fde047"/><stop offset="1" stop-color="#facc15"/></linearGradient><linearGradient id="pollen-tree__paint3_linear_3104_25703" x1="80" x2="80" y1="38.342" y2="40.974" gradientUnits="userSpaceOnUse"><stop stop-color="#fde047"/><stop offset="1" stop-color="#facc15"/></linearGradient><linearGradient id="pollen-tree__paint4_linear_3104_25703" x1="74" x2="74" y1="44.684" y2="49.947" gradientUnits="userSpaceOnUse"><stop stop-color="#fde047"/><stop offset="1" stop-color="#facc15"/></linearGradient><linearGradient id="pollen-tree__paint5_linear_3104_25703" x1="64" x2="64" y1="35.513" y2="39.461" gradientUnits="userSpaceOnUse"><stop stop-color="#fde047"/><stop offset="1" stop-color="#facc15"/></linearGradient><linearGradient id="pollen-tree__paint6_linear_3104_25703" x1="54" x2="54" y1="44.684" y2="49.947" gradientUnits="userSpaceOnUse"><stop stop-color="#fde047"/><stop offset="1" stop-color="#facc15"/></linearGradient><linearGradient id="pollen-tree__paint7_linear_3104_25703" x1="48" x2="48" y1="38.342" y2="40.974" gradientUnits="userSpaceOnUse"><stop stop-color="#fde047"/><stop offset="1" stop-color="#facc15"/></linearGradient><linearGradient id="pollen-tree__paint8_linear_3104_25703" x1="38" x2="38" y1="47.513" y2="51.461" gradientUnits="userSpaceOnUse"><stop stop-color="#fde047"/><stop offset="1" stop-color="#facc15"/></linearGradient><clipPath id="pollen-tree__clip0_3104_25703"><rect width="128" height="128" fill="#fff"/></clipPath></defs></svg>