<svg xmlns="http://www.w3.org/2000/svg" fill="none" viewBox="0 0 128 128"><g id="pollen__pollen"><g id="pollen__Pollen"><path id="pollen__Pollen 7" fill="url(#pollen__paint0_linear_3104_25647)" stroke="#facc15" d="M90 67.5a2.5 2.5 0 1 1 0 5 2.5 2.5 0 0 1 0-5Z"><animateTransform attributeName="transform" begin="0s" calcMode="spline" dur="3s" keySplines=".42 0 .58 1" repeatCount="indefinite" type="translate" values="0 0;8 -4"/><animate attributeName="opacity" begin="0s" dur="3s" keyTimes="0;0.2;0.8;1" repeatCount="indefinite" values="0;1;1;0"/></path><path id="pollen__Pollen 6" fill="url(#pollen__paint1_linear_3104_25647)" stroke="#facc15" d="M80 58.5a1.5 1.5 0 1 1 0 3 1.5 1.5 0 0 1 0-3Z"><animateTransform attributeName="transform" begin="-2.65s" calcMode="spline" dur="3s" keySplines=".42 0 .58 1" repeatCount="indefinite" type="translate" values="0 0;8 -4"/><animate attributeName="opacity" begin="-2.65s" dur="3s" keyTimes="0;0.2;0.8;1" repeatCount="indefinite" values="0;1;1;0"/></path><path id="pollen__Pollen 5" fill="url(#pollen__paint2_linear_3104_25647)" stroke="#facc15" d="M74 64.5a3.5 3.5 0 1 1 0 7 3.5 3.5 0 0 1 0-7Z"><animateTransform attributeName="transform" begin="-2.3s" calcMode="spline" dur="3s" keySplines=".42 0 .58 1" repeatCount="indefinite" type="translate" values="0 0;8 -4"/><animate attributeName="opacity" begin="-2.3s" dur="3s" keyTimes="0;0.2;0.8;1" repeatCount="indefinite" values="0;1;1;0"/></path><path id="pollen__Pollen 4" fill="url(#pollen__paint3_linear_3104_25647)" stroke="#facc15" d="M64 55.5a2.5 2.5 0 1 1 0 5 2.5 2.5 0 0 1 0-5Z"><animateTransform attributeName="transform" begin="-1.9500000000000002s" calcMode="spline" dur="3s" keySplines=".42 0 .58 1" repeatCount="indefinite" type="translate" values="0 0;8 -4"/><animate attributeName="opacity" begin="-1.9500000000000002s" dur="3s" keyTimes="0;0.2;0.8;1" repeatCount="indefinite" values="0;1;1;0"/></path><path id="pollen__Pollen 3" fill="url(#pollen__paint4_linear_3104_25647)" stroke="#facc15" d="M54 64.5a3.5 3.5 0 1 1 0 7 3.5 3.5 0 0 1 0-7Z"><animateTransform attributeName="transform" begin="-1.6s" calcMode="spline" dur="3s" keySplines=".42 0 .58 1" repeatCount="indefinite" type="translate" values="0 0;8 -4"/><animate attributeName="opacity" begin="-1.6s" dur="3s" keyTimes="0;0.2;0.8;1" repeatCount="indefinite" values="0;1;1;0"/></path><path id="pollen__Pollen 2" fill="url(#pollen__paint5_linear_3104_25647)" stroke="#facc15" d="M48 58.5a1.5 1.5 0 1 1 0 3 1.5 1.5 0 0 1 0-3Z"><animateTransform attributeName="transform" begin="-1.25s" calcMode="spline" dur="3s" keySplines=".42 0 .58 1" repeatCount="indefinite" type="translate" values="0 0;8 -4"/><animate attributeName="opacity" begin="-1.25s" dur="3s" keyTimes="0;0.2;0.8;1" repeatCount="indefinite" values="0;1;1;0"/></path><path id="pollen__Pollen 1" fill="url(#pollen__paint6_linear_3104_25647)" stroke="#facc15" d="M38 67.5a2.5 2.5 0 1 1 0 5 2.5 2.5 0 0 1 0-5Z"><animateTransform attributeName="transform" begin="-0.9000000000000004s" calcMode="spline" dur="3s" keySplines=".42 0 .58 1" repeatCount="indefinite" type="translate" values="0 0;8 -4"/><animate attributeName="opacity" begin="-0.9000000000000004s" dur="3s" keyTimes="0;0.2;0.8;1" repeatCount="indefinite" values="0;1;1;0"/></path></g></g><defs><linearGradient id="pollen__paint0_linear_3104_25647" x1="90" x2="90" y1="67.513" y2="71.46" gradientUnits="userSpaceOnUse"><stop stop-color="#fde047"/><stop offset="1" stop-color="#facc15"/></linearGradient><linearGradient id="pollen__paint1_linear_3104_25647" x1="80" x2="80" y1="58.342" y2="60.974" gradientUnits="userSpaceOnUse"><stop stop-color="#fde047"/><stop offset="1" stop-color="#facc15"/></linearGradient><linearGradient id="pollen__paint2_linear_3104_25647" x1="74" x2="74" y1="64.684" y2="69.947" gradientUnits="userSpaceOnUse"><stop stop-color="#fde047"/><stop offset="1" stop-color="#facc15"/></linearGradient><linearGradient id="pollen__paint3_linear_3104_25647" x1="64" x2="64" y1="55.513" y2="59.461" gradientUnits="userSpaceOnUse"><stop stop-color="#fde047"/><stop offset="1" stop-color="#facc15"/></linearGradient><linearGradient id="pollen__paint4_linear_3104_25647" x1="54" x2="54" y1="64.684" y2="69.947" gradientUnits="userSpaceOnUse"><stop stop-color="#fde047"/><stop offset="1" stop-color="#facc15"/></linearGradient><linearGradient id="pollen__paint5_linear_3104_25647" x1="48" x2="48" y1="58.342" y2="60.974" gradientUnits="userSpaceOnUse"><stop stop-color="#fde047"/><stop offset="1" stop-color="#facc15"/></linearGradient><linearGradient id="pollen__paint6_linear_3104_25647" x1="38" x2="38" y1="67.513" y2="71.46" gradientUnits="userSpaceOnUse"><stop stop-color="#fde047"/><stop offset="1" stop-color="#facc15"/></linearGradient></defs></svg>