<svg xmlns="http://www.w3.org/2000/svg" fill="none" viewBox="0 0 128 128"><g id="pollen-flower__pollen-flower" clip-path="url(#pollen-flower__clip0_3104_25697)"><g id="pollen-flower__Flower"><path id="pollen-flower__Leaves" fill="url(#pollen-flower__paint0_linear_3104_25697)" d="M54.197 46.496c-4.61-2.368-10.27-.656-12.88 4.004S40.1 61.07 44.395 64c-4.294 2.93-5.686 8.84-3.076 13.5s8.27 6.372 12.879 4.004C54.512 86.803 58.78 91 64 91s9.488-4.197 9.803-9.496c4.61 2.368 10.27.656 12.88-4.004S87.9 66.93 83.606 64c4.294-2.93 5.686-8.84 3.077-13.5s-8.27-6.372-12.88-4.004C73.488 41.197 69.22 37 64 37s-9.488 4.197-9.803 9.496"/><path id="pollen-flower__Leaves (Stroke)" fill="#a78bfa" fill-rule="evenodd" d="M54.197 46.496a11 11 0 0 1 .117-1.056C55.092 40.65 59.133 37 64 37s8.908 3.65 9.686 8.44a10 10 0 0 1 .117 1.056 10 10 0 0 1 .97-.433c4.407-1.684 9.48.1 11.91 4.437 2.432 4.344 1.388 9.774-2.243 12.864a10 10 0 0 1-.834.636 10 10 0 0 1 .834.636c3.63 3.09 4.675 8.52 2.243 12.864-2.43 4.338-7.502 6.121-11.91 4.437a10 10 0 0 1-.97-.433 11 11 0 0 1-.117 1.056C72.908 87.35 68.867 91 64 91s-8.908-3.65-9.686-8.44a10 10 0 0 1-.117-1.056 10 10 0 0 1-.97.433c-4.408 1.684-9.48-.1-11.91-4.437-2.432-4.344-1.388-9.774 2.243-12.864a10 10 0 0 1 .834-.636 10 10 0 0 1-.834-.636c-3.63-3.09-4.675-8.52-2.242-12.864 2.429-4.338 7.501-6.121 11.909-4.437a10 10 0 0 1 .97.433m-8.679 17.947-.56.383c-3.86 2.634-5.129 7.97-2.768 12.185 2.352 4.2 7.43 5.72 11.55 3.603l.498-.256 8.908-16.814zM64 64.068l-8.845 16.696.04.68C55.48 86.244 59.34 90 64 90s8.52-3.755 8.805-8.556l.04-.68zm9.762 16.29-8.908-16.814 17.628.9.56.382c3.86 2.634 5.129 7.97 2.768 12.185-2.352 4.2-7.43 5.72-11.55 3.603zm8.876-16.908-17.785-.907 8.826-14.859.581-.298c4.12-2.117 9.198-.598 11.55 3.603 2.36 4.215 1.092 9.55-2.767 12.185zM72.84 47.14 64 62.02l-8.84-14.88.035-.584C55.48 41.756 59.34 38 64 38s8.52 3.755 8.805 8.556zm-18.519.544 8.826 14.859-17.785.907-.405-.276c-3.86-2.634-5.128-7.97-2.767-12.185 2.352-4.2 7.43-5.72 11.55-3.603z" clip-rule="evenodd"/><circle id="pollen-flower__Center" cx="64" cy="63" r="5.5" fill="url(#pollen-flower__paint1_linear_3104_25697)" stroke="#f59e0b"/></g><g id="pollen-flower__Pollen"><path id="pollen-flower__Pollen 7" fill="url(#pollen-flower__paint2_linear_3104_25697)" stroke="#facc15" d="M90 47.5a2.5 2.5 0 1 1 0 5 2.5 2.5 0 0 1 0-5Z"><animateTransform attributeName="transform" begin="0s" calcMode="spline" dur="3s" keySplines=".42 0 .58 1" repeatCount="indefinite" type="translate" values="0 0;8 -4"/><animate attributeName="opacity" begin="0s" dur="3s" keyTimes="0;0.2;0.8;1" repeatCount="indefinite" values="0;1;1;0"/></path><path id="pollen-flower__Pollen 6" fill="url(#pollen-flower__paint3_linear_3104_25697)" stroke="#facc15" d="M80 38.5a1.5 1.5 0 1 1 0 3 1.5 1.5 0 0 1 0-3Z"><animateTransform attributeName="transform" begin="-2.65s" calcMode="spline" dur="3s" keySplines=".42 0 .58 1" repeatCount="indefinite" type="translate" values="0 0;8 -4"/><animate attributeName="opacity" begin="-2.65s" dur="3s" keyTimes="0;0.2;0.8;1" repeatCount="indefinite" values="0;1;1;0"/></path><path id="pollen-flower__Pollen 5" fill="url(#pollen-flower__paint4_linear_3104_25697)" stroke="#facc15" d="M74 44.5a3.5 3.5 0 1 1 0 7 3.5 3.5 0 0 1 0-7Z"><animateTransform attributeName="transform" begin="-2.3s" calcMode="spline" dur="3s" keySplines=".42 0 .58 1" repeatCount="indefinite" type="translate" values="0 0;8 -4"/><animate attributeName="opacity" begin="-2.3s" dur="3s" keyTimes="0;0.2;0.8;1" repeatCount="indefinite" values="0;1;1;0"/></path><path id="pollen-flower__Pollen 4" fill="url(#pollen-flower__paint5_linear_3104_25697)" stroke="#facc15" d="M64 35.5a2.5 2.5 0 1 1 0 5 2.5 2.5 0 0 1 0-5Z"><animateTransform attributeName="transform" begin="-1.9500000000000002s" calcMode="spline" dur="3s" keySplines=".42 0 .58 1" repeatCount="indefinite" type="translate" values="0 0;8 -4"/><animate attributeName="opacity" begin="-1.9500000000000002s" dur="3s" keyTimes="0;0.2;0.8;1" repeatCount="indefinite" values="0;1;1;0"/></path><path id="pollen-flower__Pollen 3" fill="url(#pollen-flower__paint6_linear_3104_25697)" stroke="#facc15" d="M54 44.5a3.5 3.5 0 1 1 0 7 3.5 3.5 0 0 1 0-7Z"><animateTransform attributeName="transform" begin="-1.6s" calcMode="spline" dur="3s" keySplines=".42 0 .58 1" repeatCount="indefinite" type="translate" values="0 0;8 -4"/><animate attributeName="opacity" begin="-1.6s" dur="3s" keyTimes="0;0.2;0.8;1" repeatCount="indefinite" values="0;1;1;0"/></path><path id="pollen-flower__Pollen 2" fill="url(#pollen-flower__paint7_linear_3104_25697)" stroke="#facc15" d="M48 38.5a1.5 1.5 0 1 1 0 3 1.5 1.5 0 0 1 0-3Z"><animateTransform attributeName="transform" begin="-1.25s" calcMode="spline" dur="3s" keySplines=".42 0 .58 1" repeatCount="indefinite" type="translate" values="0 0;8 -4"/><animate attributeName="opacity" begin="-1.25s" dur="3s" keyTimes="0;0.2;0.8;1" repeatCount="indefinite" values="0;1;1;0"/></path><path id="pollen-flower__Pollen 1" fill="url(#pollen-flower__paint8_linear_3104_25697)" stroke="#facc15" d="M38 47.5a2.5 2.5 0 1 1 0 5 2.5 2.5 0 0 1 0-5Z"><animateTransform attributeName="transform" begin="-0.9000000000000004s" calcMode="spline" dur="3s" keySplines=".42 0 .58 1" repeatCount="indefinite" type="translate" values="0 0;8 -4"/><animate attributeName="opacity" begin="-0.9000000000000004s" dur="3s" keyTimes="0;0.2;0.8;1" repeatCount="indefinite" values="0;1;1;0"/></path></g></g><defs><linearGradient id="pollen-flower__paint0_linear_3104_25697" x1="64" x2="64" y1="37" y2="91" gradientUnits="userSpaceOnUse"><stop stop-color="#c4b5fd"/><stop offset="1" stop-color="#a78bfa"/></linearGradient><linearGradient id="pollen-flower__paint1_linear_3104_25697" x1="64" x2="64" y1="57" y2="69" gradientUnits="userSpaceOnUse"><stop stop-color="#fbbf24"/><stop offset="1" stop-color="#f59e0b"/></linearGradient><linearGradient id="pollen-flower__paint2_linear_3104_25697" x1="90" x2="90" y1="47.513" y2="51.461" gradientUnits="userSpaceOnUse"><stop stop-color="#fde047"/><stop offset="1" stop-color="#facc15"/></linearGradient><linearGradient id="pollen-flower__paint3_linear_3104_25697" x1="80" x2="80" y1="38.342" y2="40.974" gradientUnits="userSpaceOnUse"><stop stop-color="#fde047"/><stop offset="1" stop-color="#facc15"/></linearGradient><linearGradient id="pollen-flower__paint4_linear_3104_25697" x1="74" x2="74" y1="44.684" y2="49.947" gradientUnits="userSpaceOnUse"><stop stop-color="#fde047"/><stop offset="1" stop-color="#facc15"/></linearGradient><linearGradient id="pollen-flower__paint5_linear_3104_25697" x1="64" x2="64" y1="35.513" y2="39.461" gradientUnits="userSpaceOnUse"><stop stop-color="#fde047"/><stop offset="1" stop-color="#facc15"/></linearGradient><linearGradient id="pollen-flower__paint6_linear_3104_25697" x1="54" x2="54" y1="44.684" y2="49.947" gradientUnits="userSpaceOnUse"><stop stop-color="#fde047"/><stop offset="1" stop-color="#facc15"/></linearGradient><linearGradient id="pollen-flower__paint7_linear_3104_25697" x1="48" x2="48" y1="38.342" y2="40.974" gradientUnits="userSpaceOnUse"><stop stop-color="#fde047"/><stop offset="1" stop-color="#facc15"/></linearGradient><linearGradient id="pollen-flower__paint8_linear_3104_25697" x1="38" x2="38" y1="47.513" y2="51.461" gradientUnits="userSpaceOnUse"><stop stop-color="#fde047"/><stop offset="1" stop-color="#facc15"/></linearGradient><clipPath id="pollen-flower__clip0_3104_25697"><rect width="128" height="128" fill="#fff"/></clipPath></defs></svg>