<svg xmlns="http://www.w3.org/2000/svg" fill="none" viewBox="0 0 128 128"><g id="pollen-grass__pollen-grass" clip-path="url(#pollen-grass__clip0_3104_25700)"><g id="pollen-grass__Grass"><path id="pollen-grass__Vector" fill="url(#pollen-grass__paint0_linear_3104_25700)" stroke="#16a34a" stroke-linecap="round" stroke-miterlimit="10" d="M69.843 39.338c.695 1.296 1.231 3.25.53 5.865-.366 1.37-.794 2.852-1.238 4.387-.443 1.533-.904 3.12-1.334 4.694-.858 3.143-1.605 6.267-1.864 8.864v.005c-.412 4.528-.602 23.022-.64 27.347h-3.463c-.06-1.902-.093-8.072.397-15.233.545-7.963 1.73-17.063 4.2-22.884v-.001c2.628-6.214 3.311-10.08 3.317-12.422q-.001-.461-.032-.849.065.111.127.227Z"/><path id="pollen-grass__Vector_2" fill="url(#pollen-grass__paint1_linear_3104_25700)" stroke="#16a34a" stroke-linecap="round" stroke-miterlimit="10" d="M84.35 61.814c-1.697.898-3.85 2.696-6.293 6.204-2.358 3.385-3.628 8.118-4.267 12.48-.59 4.018-.65 7.782-.507 10.002H69.83c.1-4.038.822-13.51 5.072-21.195l.411-.743h-.01c2.645-4.414 5.715-6.045 8.127-6.586q.476-.107.92-.163Z"/><path id="pollen-grass__Vector_3" fill="url(#pollen-grass__paint2_linear_3104_25700)" stroke="#16a34a" stroke-linecap="round" stroke-miterlimit="10" d="M75.144 51.149c.055.486.104 1.005.138 1.554.205 3.267-.057 7.537-1.86 11.738l-.18.406c-1.709 3.778-2.684 9.219-3.286 14.227-.563 4.687-.808 9.081-.999 11.425h-3.44c.126-2.1.276-6.015.873-10.41.652-4.805 1.833-10.109 4.065-14.14h.001c2.701-4.904 3.924-9.656 4.472-13.182q.132-.86.216-1.618Z"/><path id="pollen-grass__Vector_4" fill="url(#pollen-grass__paint3_linear_3104_25700)" stroke="#16a34a" stroke-linecap="round" stroke-miterlimit="10" d="M44.803 55.72c1.577.733 2.971 1.555 4.248 2.513 2.312 1.737 4.262 3.937 6.224 6.907l.393.604c.944 1.492 1.833 3.658 2.642 6.137.808 2.472 1.53 5.225 2.146 7.869 1.094 4.688 1.84 8.923 2.196 10.748h-4.387c-1.084-6.378-1.768-12.805-3.735-19.132l-.198-.625c-2.24-7.248-5.754-11.7-8.73-14.344q-.408-.36-.8-.676Z"/><path id="pollen-grass__Vector_5" fill="url(#pollen-grass__paint4_linear_3104_25700)" stroke="#16a34a" stroke-linecap="round" stroke-miterlimit="10" d="M45.08 71.421c3.998 2.075 6.94 5.618 9.055 9.236 2.231 3.818 3.512 7.672 4.129 9.842h-3.672a39 39 0 0 0-3.322-10.306l-.003-.007-.004-.008c-1.443-2.764-3.388-5.388-4.964-7.314a60 60 0 0 0-1.219-1.443Z"/></g><g id="pollen-grass__Pollen"><path id="pollen-grass__Pollen 7" fill="url(#pollen-grass__paint5_linear_3104_25700)" stroke="#facc15" d="M90 47.5a2.5 2.5 0 1 1 0 5 2.5 2.5 0 0 1 0-5Z"><animateTransform attributeName="transform" begin="0s" calcMode="spline" dur="3s" keySplines=".42 0 .58 1" repeatCount="indefinite" type="translate" values="0 0;8 -4"/><animate attributeName="opacity" begin="0s" dur="3s" keyTimes="0;0.2;0.8;1" repeatCount="indefinite" values="0;1;1;0"/></path><path id="pollen-grass__Pollen 6" fill="url(#pollen-grass__paint6_linear_3104_25700)" stroke="#facc15" d="M80 38.5a1.5 1.5 0 1 1 0 3 1.5 1.5 0 0 1 0-3Z"><animateTransform attributeName="transform" begin="-2.65s" calcMode="spline" dur="3s" keySplines=".42 0 .58 1" repeatCount="indefinite" type="translate" values="0 0;8 -4"/><animate attributeName="opacity" begin="-2.65s" dur="3s" keyTimes="0;0.2;0.8;1" repeatCount="indefinite" values="0;1;1;0"/></path><path id="pollen-grass__Pollen 5" fill="url(#pollen-grass__paint7_linear_3104_25700)" stroke="#facc15" d="M74 44.5a3.5 3.5 0 1 1 0 7 3.5 3.5 0 0 1 0-7Z"><animateTransform attributeName="transform" begin="-2.3s" calcMode="spline" dur="3s" keySplines=".42 0 .58 1" repeatCount="indefinite" type="translate" values="0 0;8 -4"/><animate attributeName="opacity" begin="-2.3s" dur="3s" keyTimes="0;0.2;0.8;1" repeatCount="indefinite" values="0;1;1;0"/></path><path id="pollen-grass__Pollen 4" fill="url(#pollen-grass__paint8_linear_3104_25700)" stroke="#facc15" d="M64 35.5a2.5 2.5 0 1 1 0 5 2.5 2.5 0 0 1 0-5Z"><animateTransform attributeName="transform" begin="-1.9500000000000002s" calcMode="spline" dur="3s" keySplines=".42 0 .58 1" repeatCount="indefinite" type="translate" values="0 0;8 -4"/><animate attributeName="opacity" begin="-1.9500000000000002s" dur="3s" keyTimes="0;0.2;0.8;1" repeatCount="indefinite" values="0;1;1;0"/></path><path id="pollen-grass__Pollen 3" fill="url(#pollen-grass__paint9_linear_3104_25700)" stroke="#facc15" d="M54 44.5a3.5 3.5 0 1 1 0 7 3.5 3.5 0 0 1 0-7Z"><animateTransform attributeName="transform" begin="-1.6s" calcMode="spline" dur="3s" keySplines=".42 0 .58 1" repeatCount="indefinite" type="translate" values="0 0;8 -4"/><animate attributeName="opacity" begin="-1.6s" dur="3s" keyTimes="0;0.2;0.8;1" repeatCount="indefinite" values="0;1;1;0"/></path><path id="pollen-grass__Pollen 2" fill="url(#pollen-grass__paint10_linear_3104_25700)" stroke="#facc15" d="M48 38.5a1.5 1.5 0 1 1 0 3 1.5 1.5 0 0 1 0-3Z"><animateTransform attributeName="transform" begin="-1.25s" calcMode="spline" dur="3s" keySplines=".42 0 .58 1" repeatCount="indefinite" type="translate" values="0 0;8 -4"/><animate attributeName="opacity" begin="-1.25s" dur="3s" keyTimes="0;0.2;0.8;1" repeatCount="indefinite" values="0;1;1;0"/></path><path id="pollen-grass__Pollen 1" fill="url(#pollen-grass__paint11_linear_3104_25700)" stroke="#facc15" d="M38 47.5a2.5 2.5 0 1 1 0 5 2.5 2.5 0 0 1 0-5Z"><animateTransform attributeName="transform" begin="-0.9000000000000004s" calcMode="spline" dur="3s" keySplines=".42 0 .58 1" repeatCount="indefinite" type="translate" values="0 0;8 -4"/><animate attributeName="opacity" begin="-0.9000000000000004s" dur="3s" keyTimes="0;0.2;0.8;1" repeatCount="indefinite" values="0;1;1;0"/></path></g></g><defs><linearGradient id="pollen-grass__paint0_linear_3104_25700" x1="67.159" x2="67.159" y1="37" y2="91" gradientUnits="userSpaceOnUse"><stop stop-color="#22c55e"/><stop offset="1" stop-color="#16a34a"/></linearGradient><linearGradient id="pollen-grass__paint1_linear_3104_25700" x1="78.66" x2="78.66" y1="61.235" y2="91" gradientUnits="userSpaceOnUse"><stop stop-color="#22c55e"/><stop offset="1" stop-color="#16a34a"/></linearGradient><linearGradient id="pollen-grass__paint2_linear_3104_25700" x1="70.415" x2="70.415" y1="46.934" y2="90.999" gradientUnits="userSpaceOnUse"><stop stop-color="#22c55e"/><stop offset="1" stop-color="#16a34a"/></linearGradient><linearGradient id="pollen-grass__paint3_linear_3104_25700" x1="51.632" x2="51.632" y1="53.388" y2="90.998" gradientUnits="userSpaceOnUse"><stop stop-color="#22c55e"/><stop offset="1" stop-color="#16a34a"/></linearGradient><linearGradient id="pollen-grass__paint4_linear_3104_25700" x1="51.029" x2="51.029" y1="70.032" y2="90.999" gradientUnits="userSpaceOnUse"><stop stop-color="#22c55e"/><stop offset="1" stop-color="#16a34a"/></linearGradient><linearGradient id="pollen-grass__paint5_linear_3104_25700" x1="90" x2="90" y1="47.513" y2="51.461" gradientUnits="userSpaceOnUse"><stop stop-color="#fde047"/><stop offset="1" stop-color="#facc15"/></linearGradient><linearGradient id="pollen-grass__paint6_linear_3104_25700" x1="80" x2="80" y1="38.342" y2="40.974" gradientUnits="userSpaceOnUse"><stop stop-color="#fde047"/><stop offset="1" stop-color="#facc15"/></linearGradient><linearGradient id="pollen-grass__paint7_linear_3104_25700" x1="74" x2="74" y1="44.684" y2="49.947" gradientUnits="userSpaceOnUse"><stop stop-color="#fde047"/><stop offset="1" stop-color="#facc15"/></linearGradient><linearGradient id="pollen-grass__paint8_linear_3104_25700" x1="64" x2="64" y1="35.513" y2="39.461" gradientUnits="userSpaceOnUse"><stop stop-color="#fde047"/><stop offset="1" stop-color="#facc15"/></linearGradient><linearGradient id="pollen-grass__paint9_linear_3104_25700" x1="54" x2="54" y1="44.684" y2="49.947" gradientUnits="userSpaceOnUse"><stop stop-color="#fde047"/><stop offset="1" stop-color="#facc15"/></linearGradient><linearGradient id="pollen-grass__paint10_linear_3104_25700" x1="48" x2="48" y1="38.342" y2="40.974" gradientUnits="userSpaceOnUse"><stop stop-color="#fde047"/><stop offset="1" stop-color="#facc15"/></linearGradient><linearGradient id="pollen-grass__paint11_linear_3104_25700" x1="38" x2="38" y1="47.513" y2="51.461" gradientUnits="userSpaceOnUse"><stop stop-color="#fde047"/><stop offset="1" stop-color="#facc15"/></linearGradient><clipPath id="pollen-grass__clip0_3104_25700"><rect width="128" height="128" fill="#fff"/></clipPath></defs></svg>